<svg xmlns="http://www.w3.org/2000/svg" viewBox="0 0 96 96" role="img" aria-label="DriveMads icon">
  <defs>
    <linearGradient id="sky" x1="0" y1="0" x2="1" y2="1">
      <stop offset="0" stop-color="#63c7ef" />
      <stop offset="1" stop-color="#1a86ea" />
    </linearGradient>
    <linearGradient id="ground" x1="0" y1="0" x2="1" y2="1">
      <stop offset="0" stop-color="#55d86b" />
      <stop offset="1" stop-color="#2fa74d" />
    </linearGradient>
    <linearGradient id="truck" x1="0" y1="0" x2="1" y2="1">
      <stop offset="0" stop-color="#ffe45c" />
      <stop offset="1" stop-color="#ffc300" />
    </linearGradient>
  </defs>

  <rect width="96" height="96" rx="24" fill="url(#sky)" />
  <path d="M0 18 32 14 64 18 78 4 96 0 96 58 0 58Z" fill="#1779e2" opacity=".85" />
  <path d="M0 61 96 49 96 96 0 96Z" fill="url(#ground)" />
  <path d="M73 14 92 8 84 26Z" fill="#fff" opacity=".96" />
  <path d="M66 18 73 14 79 20 84 18 92 8 88 27 80 25 75 31 66 25Z" fill="#fff" opacity=".96" />

  <g transform="translate(13 34)">
    <path d="M0 20 8 8h13l5-6h15l10 7h8v11H0Z" fill="url(#truck)" />
    <path d="M8 8h13v11H5Z" fill="#ffd319" />
    <path d="M26 2h15v13H26Z" fill="#ffd800" />
    <rect x="10" y="10" width="8" height="5" rx="1" fill="#d8deed" />
    <rect x="29" y="6" width="9" height="6" rx="1" fill="#2cb7ef" opacity=".92" />
    <rect x="44" y="12" width="7" height="3" rx="1.5" fill="#f7cb37" />
    <rect x="15" y="21" width="28" height="4" rx="2" fill="#2a303d" />
    <rect x="17" y="17" width="3" height="7" rx="1.5" fill="#e55f39" />
    <rect x="35" y="17" width="3" height="7" rx="1.5" fill="#e55f39" />

    <g>
      <circle cx="14" cy="27" r="10.5" fill="#1d2230" />
      <circle cx="14" cy="27" r="3.8" fill="#727786" />
      <circle cx="14" cy="27" r="2.4" fill="#dee2ef" />
    </g>
    <g>
      <circle cx="45" cy="27" r="12.5" fill="#1d2230" />
      <circle cx="45" cy="27" r="4.4" fill="#727786" />
      <circle cx="45" cy="27" r="2.8" fill="#dee2ef" />
    </g>
  </g>

  <path d="M0 79 96 67 96 96H0Z" fill="#f6c4ad" opacity=".9" />
</svg>
